<svg xmlns="http://www.w3.org/2000/svg" width="616" height="400"><path fill="#fff" d="M0 0h616v400H0V0z"/><path fill="#F9F9F9" d="M500 200l39-67h-77l38 67z"/><path fill="#F5F5F5" d="M346 200l39-67h-77l38 67z"/><path fill="#F7F7F7" d="M423 200l39-67h-77l38 67z"/><path d="M231 133zm77 0z" fill="none"/><path fill="#FCFCFC" d="M193 200l38-67h-77l39 67z"/><path fill="#F9F9F9" d="M269 200l39-67h-77l38 67z"/><path fill="#EFEFEF" d="M231 267h77l-38-67-39 67z"/><path fill="#F1F1F1" d="M269 200h-77l39 67 38-67z"/><path d="M270 200zm154 0h-1z" fill="none"/><path fill="#F0F0F0" d="M346 200h-77l39 67 38-67z"/><path d="M501 200zm77-133h-1z" fill="none"/><path fill="#F2F2F2" d="M385 267h77l-39-67-38 67z"/><path fill="#F3F3F3" d="M424 200l38 67 38-67h-77z"/><path fill="#eee" d="M423 200h-77l39 67 38-67z"/><path d="M347 200zm192 67z" fill="none"/><path fill="#F8F8F8" d="M501 200l38 67 38-67h-77zm-39 67l38 66 39-66h-77z"/><path fill="#F7F7F7" d="M347 333h77l-39-66-38 66z"/><path fill="#F8F8F8" d="M462 267h-77l38 66 39-66z"/><path fill="#F4F4F4" d="M424 333h76l-38-66-38 66z"/><path d="M577 200zm39-67z" fill="none"/><path fill="#F7F7F7" d="M539 133l38 67 39-67h-77z"/><path fill="#F9F9F9" d="M154 133H77l38 67h1l38-67z"/><path fill="#F8F8F8" d="M154 267H77l38 66h1l38-66z"/><path fill="#F5F5F5" d="M116 333h77l-39-66-38 66zm-1-133l-38 67h77l-38-67z"/><path fill="#F4F4F4" d="M154 267l38-67h-77l39 67z"/><path d="M116 200h-1z" fill="none"/><path fill="#F7F7F7" d="M231 267h-77l38 66h1l38-66z"/><path fill="#F9F9F9" d="M270 333h77l-39-66-38 66z"/><path fill="#F8F8F8" d="M308 267h-77l38 66 39-66zm-115 66h76l-38-66-38 66z"/><path fill="#FAFAFA" d="M385 267h-77l38 66 39-66z"/><path fill="#F1F1F1" d="M308 267h77l-38-67-39 67z"/><path fill="#FAFAFA" d="M616 267l-39-67-38 67h77z"/><path fill="#F7F7F7" d="M462 133l-38 67h77l-39-67zm0-133l-38 67h77L462 0z"/><path fill="#F5F5F5" d="M539 0l-38 67h77L539 0zM39 333h77l-39-66-38 66z"/><path fill="#F3F3F3" d="M0 133h77L39 67 0 133z"/><path d="M77 267zm0-134z" fill="none"/><path fill="#F7F7F7" d="M39 200h77l-39-67-38 67z"/><path fill="#F4F4F4" d="M116 67l-39 66h77l-38-66z"/><path fill="#F1F1F1" d="M77 0L39 67h77L77 0z"/><path fill="#F7F7F7" d="M231 0l-38 67h77L231 0z"/><path fill="#F5F5F5" d="M308 0l-38 67h77L308 0z"/><path fill="#F7F7F7" d="M385 0l-38 67h77L385 0z"/><path fill="#F4F4F4" d="M154 0l-38 67h77L154 0z"/><path fill="#F0F0F0" d="M577 333l-38-66-38 66h76z"/><path fill="#F5F5F5" d="M154 267h77l-38-67-39 67z"/><path fill="#F7F7F7" d="M193 67l-39 66h77l-38-66z"/><path d="M231 267zm77 0z" fill="none"/><path fill="#F8F8F8" d="M385 133l-38 67h77l-39-67z"/><path d="M193 200h-1z" fill="none"/><path fill="#F7F7F7" d="M308 133l-38 67h77l-39-67z"/><path fill="#F9F9F9" d="M231 133l-38 67h77l-39-67z"/><path fill="#FBFBFB" d="M116 200h77l-39-67-38 67z"/><path fill="#F8F8F8" d="M347 67l-39 66h77l-38-66z"/><path fill="#F7F7F7" d="M270 67l-39 66h77l-38-66z"/><path fill="#F3F3F3" d="M501 67l-39 66h77l-39-66z"/><path fill="#F8F8F8" d="M424 67l-39 66h77l-39-66z"/><path fill="#F4F4F4" d="M577 67l-38 66h77l-39-66z"/><path fill="#FBFBFB" d="M577 200l-38-67-38 67h76z"/><path fill="#FAFAFA" d="M539 267l-39-67-38 67h77z"/><path fill="#F2F2F2" d="M116 67l38-67H77l39 67z"/><path fill="#F3F3F3" d="M539 133l38-66h-77l39 66z"/><path fill="#F4F4F4" d="M577 67l39-67h-77l38 67z"/><path fill="#FBFBFB" d="M193 67l38-67h-77l39 67z"/><path d="M462 0zm77 0z" fill="none"/><path fill="#F8F8F8" d="M500 67l39-67h-77l38 67z"/><path fill="#F3F3F3" d="M423 67l39-67h-77l38 67z"/><path fill="#F4F4F4" d="M346 67l39-67h-77l38 67zM269 67l39-67h-77l38 67z"/><path fill="#F2F2F2" d="M39 67L77 0H0l39 67z"/><path fill="#F8F8F8" d="M501 333l-39 67h77l-38-67z"/><path fill="#FBFBFB" d="M347 333l-39 67h77l-38-67z"/><path fill="#F9F9F9" d="M424 333l-39 67h77l-38-67z"/><path fill="#EFEFEF" d="M539 400h77l-39-67-38 67z"/><path fill="#FAFAFA" d="M39 333L0 400h77l-38-67z"/><path d="M77 400zm231 0z" fill="none"/><path fill="#FEFEFE" d="M116 333l-39 67h77l-39-67z"/><path fill="#FCFCFC" d="M270 333l-39 67h77l-38-67z"/><path fill="#FAFAFA" d="M193 333l-39 67h77l-39-67z"/><path d="M116 67h-1 1z" fill="none"/><path fill="#F4F4F4" d="M77 133H0l38 67 39-67z"/><path fill="#F5F5F5" d="M77 133l38-66H39l38 66z"/><path fill="#F6F6F6" d="M39 333L0 267v66h39z"/><path fill="#F4F4F4" d="M39 200L0 133v67h39z"/><path fill="#F7F7F7" d="M0 267l39-67H0v67z"/><path fill="#F5F5F5" d="M0 400l39-67H0v67z"/><path fill="#F4F4F4" d="M39 67L0 0v67h39z"/><path fill="#F5F5F5" d="M0 133l39-66H0v66zM39 200L0 267h77l-38-67zm38 67H0l38 66 39-66zm0 0l38-67H39l38 67z"/><path d="M39 67zm308 0z" fill="none"/><path fill="#F6F6F6" d="M385 133l38-66h-77l39 66z"/><path d="M424 67h-1z" fill="none"/><path fill="#FAFAFA" d="M462 133l38-66h-77l39 66z"/><path fill="#F6F6F6" d="M154 133l38-66h-77l39 66z"/><path d="M501 67h-1zm-308 0z" fill="none"/><path fill="#F6F6F6" d="M231 133l38-66h-77l39 66z"/><path fill="#F8F8F8" d="M308 133l38-66h-77l39 66z"/><path d="M616 267zm-39 66z" fill="none"/><path fill="#EDEDED" d="M539 267l38 66 39-66h-77z"/><path fill="#F9F9F9" d="M501 333l38 67 38-67h-77z"/><path fill="#FBFBFB" d="M424 333l38 67 38-67h-77zm-385 0l38 67 39-67H39z"/><path fill="#F5F5F5" d="M578 67l38 66V67h-39z"/><path fill="#F4F4F4" d="M616 134l-39 66h39v-66z"/><path fill="#F6F6F6" d="M616 267l-39 66h39v-66z"/><path fill="#F5F5F5" d="M578 333l38 67v-67h-39z"/><path fill="#F4F4F4" d="M616 0l-39 67h39V0z"/><path fill="#F7F7F7" d="M578 200l38 67v-67h-39z"/><path fill="#FCFCFC" d="M193 333l38 67 39-67h-77z"/><path fill="#FDFDFD" d="M116 333l38 67 39-67h-77z"/><path d="M193 333h-1zm-77 0h-1z" fill="none"/><path fill="#FCFCFC" d="M270 333l38 67 39-67h-77zm77 0l38 67 39-67h-77z"/><path d="M346 333zm-77 0zm154 0z" fill="none"/></svg>